#!OML:ASF F:\VICON\USERDATA\INSTALL\rory3\rory3.ASF
:FULLY-SPECIFIED
:DEGREES
18
root 1.146422485618314 18.139687477436535 -11.82698993007425 -2.0087219603280895 -3.8441847958349626 -2.03514014519129
lfemur -16.747294217553964 -2.2313908759017136 -19.89559987837405
ltibia 18.544307229691015
lfoot 0.46502976468469104 -2.7023474983473657
ltoes -1.4908629118602024
rfemur 2.6425596775153473 4.99552807786817 25.510700247991963
rtibia 52.25539098000603
rfoot 16.642173830803138 1.0449862285590408
rtoes 8.031063113784592
lowerback 8.664065242968688 2.023601954286588 2.7839264756669766
upperback -0.3223626582935387 3.025792657222251 0.8691240530133286
thorax -5.099006589299064 1.4315825871116004 -1.046792005816155
lowerneck -17.027696435408743 -3.2087130570696423 -1.825162594356737
upperneck 22.696582037881395 -4.075054817538395 0.3347951297906404
head 10.09108424897547 -1.9984218779066987 -0.1316820654365514
lclavicle -2.7971981472530934e-15 -4.160076361964552e-16
lhumerus -38.60758637660644 9.87028270005888 79.61161996028162
lradius 18.10891544921226
lwrist -1.0797216922697483
lhand -25.56020781660201 21.026007300238348
lfingers 7.1250199999999975
lthumb 0.9705011831497311 51.003507277277656
rclavicle -2.7971981472530934e-15 -4.160076361964552e-16
rhumerus -28.658498658268833 -17.94830013386071 -79.42479886971151
rradius 25.550397674835715
rwrist 5.960560648578679
rhand -17.69069882932043 26.473582678762657
rfingers 7.1250199999999975
rthumb 8.568851169416797 -3.332527334279308
19
root 1.1862915352013048 18.208983603871697 -10.928290329456734 -2.3716390933895073 -3.2936765143904014 -0.7265103746606247
lfemur -13.603796339901422 -2.163651134592927 -22.13169665037221
ltibia 19.68770659953863
lfoot -2.2723340343530487 -2.143068276884308
ltoes -2.444281557533793
rfemur -4.005625823428922 4.359920359916714 23.804502772579976
rtibia 62.672985052970134
rfoot 10.100380696819999 -3.1455659274075902
rtoes 7.032844650128082
lowerback 9.474974977420148 1.7742634486475533 1.2516599870784006
upperback -0.2857006195404731 2.541124530516878 0.6831069586989365
thorax -5.591654999974718 1.225224312658868 -0.34952088633077183
lowerneck -16.656401568920455 -3.0817964356549266 -1.768453306743762
upperneck 21.47319582121939 -3.9166975651370515 0.38926753991732943
head 9.584817651481414 -1.9209853818997709 -0.08241841870477801
lclavicle -2.7971981595341233e-15 -4.160076167795146e-16
lhumerus -37.26098850077514 6.826208445986102 81.1567111823787
lradius 20.273410812104196
lwrist 0.8556739580669737
lhand -25.69690712643235 23.78409936310993
lfingers 7.1250199999999975
lthumb 0.8385258730836139 53.762199341508456
rclavicle -2.7971981595341233e-15 -4.160076167795146e-16
rhumerus -29.77189561637022 -18.307199535621066 -79.20149962144953
rradius 24.718800217199526
rwrist 5.633311459596265
rhand -17.42470107707866 17.91411905489743
rfingers 7.1250199999999975
rthumb 8.825568921470689 -11.88138089779806
20
root 1.2046010987293858 18.200584073394708 -10.085090704175114 -2.808375643299249 -2.498138997868629 -0.003077119967337616
lfemur -10.779998246402103 -2.5566096339242064 -23.37699485267503
ltibia 20.343906237892725
lfoot -4.790531089675494 -1.4353592620409112
ltoes 1.4077629706562544
rfemur -10.637701335275318 3.3137041161899443 22.775704294849437
rtibia 68.88458151891473
rfoot 2.4226387550855364 -7.906917014931281
rtoes 5.108247612247318
lowerback 9.679112393183624 1.3749058421182956 0.30100716563755225
upperback 0.3626973800249907 1.8977970170471545 0.687555913120822
thorax -5.065017388879169 0.9368827237424173 0.2833704991153767
lowerneck -17.406891192673378 -3.0133782569817877 -1.6320950196884754
upperneck 21.119799802772153 -3.786679821027285 0.17235988877676056
head 9.590437502705866 -1.871817606736281 -0.17165496738430178
lclavicle -2.7971981874458775e-15 -4.1600762281451624e-16
lhumerus -34.93309217287691 6.00997998668088 81.47270938714388
lradius 21.773507598370877
lwrist 2.446976737306639
lhand -27.10360002429877 19.067012937754974
lfingers 7.1250199999999975
lthumb -0.5201580240570483 49.04611290800032
rclavicle -2.7971981874458775e-15 -4.1600762281451624e-16
rhumerus -29.306296888426978 -20.560795779162817 -78.5035019712621
rradius 22.835805973898708
rwrist 9.412722093129993
rhand -17.225802757827196 20.47520817074313
rfingers 7.1250199999999975
rthumb 9.017497240852515 -9.312061848616747
21
root 0.8605990630902352 18.110638614898384 12.717950071284797 -2.850890063109742 -1.1608066148722291 0.34323327489592437
lfemur -9.76739579279294 -2.7651841145567815 -24.43554751381967
ltibia 16.648139662821784
lfoot -1.496550624046887 -3.546580879415325
ltoes -0.33645129318478206
rfemur -12.84398106208414 2.4326696309388494 18.77488703078318
rtibia 69.80224697211163
rfoot 0.46988794668809497 -7.156739468611282
rtoes 7.997753822972152
lowerback 9.412744217072136 1.1973637708522906 0.4188559290889262
upperback 0.5320192132838074 1.719785943482234 0.7114328567871601
thorax -4.767650259923873 0.8504646044111053 0.17873411815301465
lowerneck -17.114576947232 -3.001411558259784 -1.5041941742136364
upperneck 21.218479691809222 -3.8731721992242814 0.4515078228634957
head 9.586056739052541 -1.8696375982616464 -0.12177790671951558
lclavicle -2.7971981745180783e-15 -4.1600761641051477e-16
lhumerus -33.76116910952746 5.685422520146477 82.5195876300706
lradius 21.38792160668577
lwrist 6.278716092184803
lhand -27.242969590840914 22.771609887849582
lfingers 7.1250199999999975
lthumb -0.6224895977398113 52.94638811316415
rclavicle -2.797198174454529e-15 -4.1600761636758994e-16
rhumerus -28.475629177727892 -16.25267218850634 -79.22991743936116
rradius 23.942745318545228
rwrist 10.466082219351623
rhand -17.034106957035995 21.318606544335616
rfingers 7.1250199999999975
rthumb 9.418277800492453 -8.042262565083234
22
root 0.6291685932354381 18.053055473184276 9.497627513431684 -2.8034666912505855 -0.5196100502283791 0.8118291726359077
lfemur -7.476566596604399 -2.9591624563784378 -24.76624960453555
ltibia 15.049130068638302
lfoot -2.161004460364868 -6.6948890105441405
ltoes -0.6655859729665465
rfemur -15.143974228566112 2.0865263378240417 18.271639070327474
rtibia 70.90139423746919
rfoot -0.6671700501261215 -4.6589704037104696
rtoes 6.663020114964844
lowerback 9.456637791826392 1.2066900536765213 -0.01428705877026859
upperback 0.5217599620385914 1.4892197502442759 0.6968656558437286
thorax -4.747175511872827 0.7565519642076259 0.18729857537554606
lowerneck -17.004115593530717 -3.0005537781337357 -1.4433020268744507
upperneck 21.286091487795535 -3.9352731507049006 0.6038461755747666
head 9.64145797050002 -1.8910531797582846 -0.070583613353989
lclavicle -2.797198174513488e-15 -4.1600761640728004e-16
lhumerus -33.1100960812 4.766136082827572 83.12981650315923
lradius 20.902728033159953
lwrist 8.123043304662602
lhand -27.723523119963325 24.07536077623544
lfingers 7.1250199999999975
lthumb -1.0282080740136288 54.371429390833
rclavicle -2.797198174447029e-15 -4.1600761636249725e-16
rhumerus -28.13382943088606 -14.315313525457588 -80.12821066639827
rradius 24.091717260934196
rwrist 10.616231432895514
rhand -17.131015873384946 21.039870374527602
rfingers 7.1250199999999975
rthumb 9.282990843033138 -8.414387579530674
